<svg xmlns="http://www.w3.org/2000/svg" width="680" height="420" viewBox="0 0 680 420" role="img">
<line x1="72" y1="34" x2="656" y2="34" stroke="#D8D8D8" stroke-width="1"/>
<text x="64" y="38" text-anchor="end" font-family="monospace" font-size="11" fill="#222222">23.9108</text>
<line x1="72" y1="118.5" x2="656" y2="118.5" stroke="#D8D8D8" stroke-width="1"/>
<text x="64" y="122.5" text-anchor="end" font-family="monospace" font-size="11" fill="#222222">17.9331</text>
<line x1="72" y1="203" x2="656" y2="203" stroke="#D8D8D8" stroke-width="1"/>
<text x="64" y="207" text-anchor="end" font-family="monospace" font-size="11" fill="#222222">11.9554</text>
<line x1="72" y1="287.5" x2="656" y2="287.5" stroke="#D8D8D8" stroke-width="1"/>
<text x="64" y="291.5" text-anchor="end" font-family="monospace" font-size="11" fill="#222222">5.9777</text>
<line x1="72" y1="372" x2="656" y2="372" stroke="#D8D8D8" stroke-width="1"/>
<text x="64" y="376" text-anchor="end" font-family="monospace" font-size="11" fill="#222222">0</text>
<line x1="72" y1="34" x2="72" y2="372" stroke="#222222" stroke-width="1"/>
<line x1="72" y1="372" x2="656" y2="372" stroke="#222222" stroke-width="1"/>
<circle cx="72" cy="34" r="3" fill="#0072B2"/>
<circle cx="218" cy="49.748774612309056" r="3" fill="#E69F00"/>
<circle cx="364" cy="65.52864814226206" r="3" fill="#009E73"/>
<circle cx="510" cy="81.25904612141794" r="3" fill="#D55E00"/>
<circle cx="656" cy="92.17193904009899" r="3" fill="#CC79A7"/>
<polyline points="72,34 218,49.748775 364,65.528648 510,81.259046 656,92.171939" fill="none" stroke="#0072B2" stroke-width="2"/>
<text x="17" y="26" transform="rotate(-90 17 26)" text-anchor="middle" font-family="sans-serif" font-size="12" fill="#222222">单位期望利润（元/件）</text>
</svg>
